<?xml version="1.0" encoding="UTF-8"?>
<svg width="169px" height="49px" viewBox="0 0 169 49" version="1.1" xmlns="http://www.w3.org/2000/svg" xmlns:xlink="http://www.w3.org/1999/xlink">
    <!-- Generator: Sketch 44.1 (41455) - http://www.bohemiancoding.com/sketch -->
    <title>Download_on_the_App_Store_Badge_US-UK_135x40</title>
    <desc>Created with Sketch.</desc>
    <defs/>
    <g id="Web" stroke="none" stroke-width="1" fill="none" fill-rule="evenodd">
        <g id="iPhone-7-Copy-5" transform="translate(-103.000000, -474.000000)" fill-rule="nonzero">
            <g id="Download_on_the_App_Store_Badge_US-UK_135x40" transform="translate(102.000000, 472.914301)">
                <path d="M5.99006667,51 C2.68786667,51 0,48.2868 0,44.965425 L0,6.02565 C0,2.703 2.68786667,0 5.99006667,0 L164.9162,0 C168.217133,0 171,2.703 171,6.02565 L171,44.965425 C171,48.2868 168.217133,51 164.9162,51 L5.99006667,51 Z" id="Shape"/>
                <path d="M169.773867,44.9667 C169.773867,47.6646 167.6028,49.84995 164.917467,49.84995 L5.99006667,49.84995 C3.306,49.84995 1.12733333,47.6646 1.12733333,44.9667 L1.12733333,6.024375 C1.12733333,3.32775 3.306,1.13475 5.99006667,1.13475 L164.9162,1.13475 C167.6028,1.13475 169.7726,3.32775 169.7726,6.024375 L169.773867,44.9667 L169.773867,44.9667 Z" id="Shape" fill="#000000"/>
                <g id="Group" transform="translate(15.757003, 7.650000)" fill="#FFFFFF">
                    <path d="M22.4051301,17.5746 C22.3683967,13.465275 25.7478634,11.466075 25.9023967,11.373 C23.9884634,8.564175 21.0219301,8.1804 19.9794634,8.1498 C17.4879301,7.885875 15.0711301,9.650475 13.8019301,9.650475 C12.5073967,9.650475 10.5529301,8.1753 8.44646341,8.21865 C5.73579674,8.260725 3.19993008,9.84045 1.80913008,12.29355 C-1.06113659,17.295375 1.07953008,24.64575 3.82946341,28.688775 C5.20506341,30.66885 6.81246341,32.8797 8.91639674,32.801925 C10.9747301,32.7165 11.7435967,31.481025 14.2275301,31.481025 C16.6886634,31.481025 17.4106634,32.801925 19.5563967,32.7522 C21.7654634,32.7165 23.1562634,30.7632 24.4837301,28.765275 C26.0733967,26.495775 26.7117967,24.2607 26.7371301,24.14595 C26.6851967,24.1281 22.4469301,22.499925 22.4051301,17.5746 Z" id="Shape"/>
                    <path d="M18.3517967,5.49015 C19.4588634,4.096575 20.2163301,2.20065 20.0060634,0.276675 C18.4037301,0.348075 16.3998634,1.3923 15.2459301,2.755275 C14.2249967,3.956325 13.3129967,5.924925 13.5485967,7.776225 C15.3485301,7.911375 17.1965967,6.86205 18.3517967,5.49015 Z" id="Shape"/>
                </g>
                <g id="Group" transform="translate(53.200000, 22.950000)" fill="#FFFFFF">
                    <path d="M14.7503333,17.2176 L11.8737333,17.2176 L10.298,12.233625 L4.82093333,12.233625 L3.31993333,17.2176 L0.519333333,17.2176 L5.94573333,0.2499 L9.29733333,0.2499 L14.7503333,17.2176 Z M9.823,10.142625 L8.398,5.712 C8.24726667,5.259375 7.9648,4.193475 7.54806667,2.515575 L7.4974,2.515575 C7.33146667,3.237225 7.0642,4.303125 6.69686667,5.712 L5.2972,10.142625 L9.823,10.142625 L9.823,10.142625 Z" id="Shape"/>
                    <path d="M28.7052,10.9497 C28.7052,13.0305 28.1466,14.67525 27.0294,15.882675 C26.0287333,16.9575 24.7861333,17.494275 23.3028667,17.494275 C21.7018,17.494275 20.5516667,16.915425 19.8512,15.757725 L19.8005333,15.757725 L19.8005333,22.20285 L17.1,22.20285 L17.1,9.010425 C17.1,7.702275 17.0658,6.3597 16.9999333,4.9827 L19.3749333,4.9827 L19.5256667,6.921975 L19.5763333,6.921975 C20.4769333,5.460825 21.8436667,4.731525 23.6778,4.731525 C25.1116667,4.731525 26.3086667,5.30145 27.2662667,6.442575 C28.2264,7.584975 28.7052,9.086925 28.7052,10.9497 Z M25.954,11.04915 C25.954,9.8583 25.688,8.87655 25.1534667,8.1039 C24.5695333,7.2981 23.7854667,6.8952 22.8025333,6.8952 C22.1362667,6.8952 21.5308,7.1196 20.9899333,7.562025 C20.4478,8.008275 20.0931333,8.59095 19.9272,9.3126 C19.8436,9.6492 19.8018,9.9246 19.8018,10.14135 L19.8018,12.18135 C19.8018,13.0713 20.0728667,13.822275 20.615,14.43555 C21.1571333,15.048825 21.8614,15.354825 22.7278,15.354825 C23.7449333,15.354825 24.5366,14.959575 25.1028,14.171625 C25.6702667,13.3824 25.954,12.342 25.954,11.04915 Z" id="Shape"/>
                    <path d="M42.6854,10.9497 C42.6854,13.0305 42.1268,14.67525 41.0083333,15.882675 C40.0089333,16.9575 38.7663333,17.494275 37.2830667,17.494275 C35.682,17.494275 34.5318667,16.915425 33.8326667,15.757725 L33.782,15.757725 L33.782,22.20285 L31.0814667,22.20285 L31.0814667,9.010425 C31.0814667,7.702275 31.0472667,6.3597 30.9814,4.9827 L33.3564,4.9827 L33.5071333,6.921975 L33.5578,6.921975 C34.4571333,5.460825 35.8238667,4.731525 37.6592667,4.731525 C39.0918667,4.731525 40.2888667,5.30145 41.249,6.442575 C42.2053333,7.584975 42.6854,9.086925 42.6854,10.9497 Z M39.9342,11.04915 C39.9342,9.8583 39.6669333,8.87655 39.1324,8.1039 C38.5484667,7.2981 37.7669333,6.8952 36.7827333,6.8952 C36.1152,6.8952 35.511,7.1196 34.9688667,7.562025 C34.4267333,8.008275 34.0733333,8.59095 33.9074,9.3126 C33.8250667,9.6492 33.782,9.9246 33.782,10.14135 L33.782,12.18135 C33.782,13.0713 34.0530667,13.822275 34.5926667,14.43555 C35.1348,15.04755 35.8390667,15.354825 36.708,15.354825 C37.7251333,15.354825 38.5168,14.959575 39.083,14.171625 C39.6504667,13.3824 39.9342,12.342 39.9342,11.04915 Z" id="Shape"/>
                    <path d="M58.3160667,12.4593 C58.3160667,13.9026 57.8182667,15.076875 56.8188667,15.9834 C55.7206667,16.974075 54.1918,17.468775 52.2272,17.468775 C50.4133333,17.468775 48.9592,17.116875 47.8584667,16.4118 L48.4842,14.146125 C49.6698,14.867775 50.9706667,15.229875 52.3880667,15.229875 C53.4052,15.229875 54.1968667,14.997825 54.7656,14.536275 C55.3318,14.074725 55.6142667,13.455075 55.6142667,12.682425 C55.6142667,11.993925 55.3812,11.4138 54.9138,10.943325 C54.4489333,10.47285 53.6724667,10.035525 52.5882,9.63135 C49.6368667,8.523375 48.1624667,6.9003 48.1624667,4.76595 C48.1624667,3.3711 48.6792667,2.227425 49.7141333,1.337475 C50.7452,0.44625 52.1208,0.001275 53.8409333,0.001275 C55.3748667,0.001275 56.6491333,0.2703 57.6662667,0.807075 L56.9911333,3.023025 C56.0411333,2.502825 54.967,2.242725 53.7649333,2.242725 C52.8149333,2.242725 52.0726667,2.4786 51.5406667,2.9478 C51.091,3.367275 50.8655333,3.87855 50.8655333,4.484175 C50.8655333,5.154825 51.1226667,5.70945 51.6394667,6.1455 C52.0891333,6.5484 52.9061333,6.98445 54.0917333,7.454925 C55.5420667,8.0427 56.6073333,8.729925 57.2926,9.517875 C57.9753333,10.303275 58.3160667,11.2863 58.3160667,12.4593 Z" id="Shape"/>
                    <path d="M67.2448,7.0227 L64.2681333,7.0227 L64.2681333,12.962925 C64.2681333,14.4738 64.7925333,15.2286 65.8438667,15.2286 C66.3264667,15.2286 66.7267333,15.186525 67.0434,15.102375 L67.1181333,17.1666 C66.5861333,17.366775 65.8856667,17.4675 65.018,17.4675 C63.9514667,17.4675 63.118,17.139825 62.5163333,16.48575 C61.9172,15.8304 61.6157333,14.73135 61.6157333,13.187325 L61.6157333,7.02015 L59.8424,7.02015 L59.8424,4.98015 L61.6157333,4.98015 L61.6157333,2.739975 L64.2681333,1.934175 L64.2681333,4.98015 L67.2448,4.98015 L67.2448,7.0227 Z" id="Shape"/>
                    <path d="M80.6752667,10.999425 C80.6752667,12.88005 80.1407333,14.424075 79.0742,15.6315 C77.9557333,16.874625 76.4712,17.494275 74.6206,17.494275 C72.8371333,17.494275 71.4172,16.89885 70.3582667,15.708 C69.2993333,14.51715 68.7698667,13.013925 68.7698667,11.20215 C68.7698667,9.306225 69.3145333,7.753275 70.4076667,6.54585 C71.4982667,5.33715 72.9701333,4.7328 74.8207333,4.7328 C76.6042,4.7328 78.0393333,5.328225 79.1223333,6.52035 C80.1584667,7.676775 80.6752667,9.1698 80.6752667,10.999425 Z M77.8734,11.0874 C77.8734,9.959025 77.634,8.9913 77.1488667,8.184225 C76.5826667,7.207575 75.7732667,6.720525 74.7244667,6.720525 C73.6389333,6.720525 72.8143333,7.20885 72.2481333,8.184225 C71.763,8.992575 71.5236,9.9756 71.5236,11.1384 C71.5236,12.266775 71.763,13.2345 72.2481333,14.0403 C72.8320667,15.01695 73.6478,15.504 74.7004,15.504 C75.7314667,15.504 76.5408667,15.00675 77.1248,14.0148 C77.6226,13.192425 77.8734,12.2145 77.8734,11.0874 Z" id="Shape"/>
                    <path d="M89.4532667,7.373325 C89.186,7.3236 88.901,7.2981 88.6020667,7.2981 C87.6520667,7.2981 86.9174,7.658925 86.4006,8.38185 C85.9509333,9.01935 85.7254667,9.82515 85.7254667,10.797975 L85.7254667,17.2176 L83.0262,17.2176 L83.0515333,8.83575 C83.0515333,7.4256 83.0173333,6.141675 82.9502,4.983975 L85.3024,4.983975 L85.4012,7.324875 L85.4759333,7.324875 C85.7609333,6.52035 86.2106,5.87265 86.8262,5.386875 C87.4278667,4.94955 88.0776667,4.731525 88.7781333,4.731525 C89.0276667,4.731525 89.2531333,4.749375 89.4532667,4.78125 L89.4532667,7.373325 Z" id="Shape"/>
                    <path d="M101.530933,10.5213 C101.530933,11.00835 101.499267,11.4189 101.432133,11.754225 L93.3305333,11.754225 C93.3622,12.962925 93.7536,13.8873 94.506,14.5248 C95.1887333,15.094725 96.0716,15.380325 97.1558667,15.380325 C98.3554,15.380325 99.4498,15.1878 100.434,14.801475 L100.857067,16.688475 C99.7069333,17.193375 98.3490667,17.44455 96.7822,17.44455 C94.8974,17.44455 93.4179333,16.8861 92.3412667,15.770475 C91.2671333,14.65485 90.7288,13.156725 90.7288,11.277375 C90.7288,9.43245 91.2291333,7.896075 92.2310667,6.6708 C93.2798667,5.36265 94.6972667,4.708575 96.4807333,4.708575 C98.2325333,4.708575 99.5587333,5.36265 100.459333,6.6708 C101.172467,7.709925 101.530933,8.995125 101.530933,10.5213 Z M98.9558,9.816225 C98.9735333,9.010425 98.7974667,8.314275 98.4314,7.7265 C97.964,6.970425 97.2458,6.593025 96.2793333,6.593025 C95.3964667,6.593025 94.6782667,6.9615 94.1298,7.701 C93.6801333,8.288775 93.4128667,8.99385 93.3305333,9.81495 L98.9558,9.81495 L98.9558,9.816225 Z" id="Shape"/>
                </g>
                <g id="Group" transform="translate(55.023670, 8.210440)" fill="#FFFFFF">
                    <path d="M7.10633008,4.55103544 C7.10633008,6.05171044 6.65919674,7.18136044 5.76619674,7.93998544 C4.93906341,8.63996044 3.76359674,8.99058544 2.24106341,8.99058544 C1.48613008,8.99058544 0.840130076,8.95743544 0.299263409,8.89113544 L0.299263409,0.69161044 C1.00479674,0.57686044 1.76479674,0.51821044 2.58559674,0.51821044 C4.03593008,0.51821044 5.12906341,0.83568544 5.86626341,1.47063544 C6.69213008,2.18846044 7.10633008,3.21483544 7.10633008,4.55103544 Z M5.70666341,4.58801044 C5.70666341,3.61518544 5.45079674,2.86931044 4.93906341,2.34911044 C4.42733008,1.83018544 3.67999674,1.57008544 2.69579674,1.57008544 C2.27779674,1.57008544 1.92186341,1.59813544 1.62673008,1.65678544 L1.62673008,7.89026044 C1.79013008,7.91576044 2.08906341,7.92723544 2.52353008,7.92723544 C3.53939674,7.92723544 4.32346341,7.64291044 4.87573008,7.07426044 C5.42799674,6.50561044 5.70666341,5.67686044 5.70666341,4.58801044 Z" id="Shape"/>
                    <path d="M14.5277301,5.86173544 C14.5277301,6.78611044 14.2655301,7.54346044 13.7411301,8.13761044 C13.1913967,8.74833544 12.4630634,9.05306044 11.5535967,9.05306044 C10.6770634,9.05306044 9.97913008,8.76108544 9.45853008,8.17458544 C8.93919674,7.58936044 8.67953008,6.85113544 8.67953008,5.96118544 C8.67953008,5.03043544 8.94679674,4.26671044 9.48386341,3.67383544 C10.0209301,3.08096044 10.7429301,2.78388544 11.6523967,2.78388544 C12.5289301,2.78388544 13.2331967,3.07586044 13.7664634,3.66108544 C14.2731301,4.22973544 14.5277301,4.96413544 14.5277301,5.86173544 Z M13.1508634,5.90508544 C13.1508634,5.35046044 13.0317967,4.87488544 12.7949301,4.47836044 C12.5162634,3.99896044 12.1197967,3.75926044 11.6042634,3.75926044 C11.0709967,3.75926044 10.6656634,3.99896044 10.3869967,4.47836044 C10.1488634,4.87488544 10.0310634,5.35811044 10.0310634,5.92931044 C10.0310634,6.48393544 10.1501301,6.95951044 10.3869967,7.35603544 C10.6745301,7.83543544 11.0747967,8.07513544 11.5915967,8.07513544 C12.0982634,8.07513544 12.4959967,7.83161044 12.7822634,7.34328544 C13.0279967,6.93911044 13.1508634,6.45971044 13.1508634,5.90508544 Z" id="Shape"/>
                    <path d="M24.4786634,2.90628544 L22.6103301,8.91663544 L21.3943301,8.91663544 L20.6203967,6.30671044 C20.4240634,5.65518544 20.2644634,5.00748544 20.1403301,4.36488544 L20.1162634,4.36488544 C20.0009967,5.02533544 19.8413967,5.67176044 19.6361967,6.30671044 L18.8141301,8.91663544 L17.5841967,8.91663544 L15.8273301,2.90628544 L17.1915301,2.90628544 L17.8666634,5.76356044 C18.0300634,6.43931044 18.1643301,7.08318544 18.2719967,7.69263544 L18.2960634,7.69263544 C18.3948634,7.19028544 18.5582634,6.55023544 18.7887967,5.77631044 L19.6361967,2.90756044 L20.7179301,2.90756044 L21.5298634,5.71511044 C21.7261967,6.39978544 21.8857967,7.05896044 22.0086634,7.69391044 L22.0453967,7.69391044 C22.1353301,7.07553544 22.2708634,6.41636044 22.4507301,5.71511044 L23.1752634,2.90756044 L24.4786634,2.90756044 L24.4786634,2.90628544 Z" id="Shape"/>
                    <path d="M31.3604634,8.91663544 L30.0329967,8.91663544 L30.0329967,5.47413544 C30.0329967,4.41333544 29.6327301,3.88293544 28.8296634,3.88293544 C28.4357301,3.88293544 28.1177967,4.02828544 27.8707967,4.32026044 C27.6263301,4.61223544 27.5021967,4.95648544 27.5021967,5.35046044 L27.5021967,8.91536044 L26.1747301,8.91536044 L26.1747301,4.62371044 C26.1747301,4.09586044 26.1582634,3.52338544 26.1265967,2.90373544 L27.2931967,2.90373544 L27.3552634,3.84341044 L27.3919967,3.84341044 C27.5465301,3.55143544 27.7770634,3.31046044 28.0797967,3.11793544 C28.4395301,2.89353544 28.8423301,2.78006044 29.2831301,2.78006044 C29.8404634,2.78006044 30.3040634,2.96111044 30.6726634,3.32448544 C31.1311967,3.76946044 31.3604634,4.43373544 31.3604634,5.31603544 L31.3604634,8.91663544 L31.3604634,8.91663544 Z" id="Shape"/>
                    <polygon id="Shape" points="35.0211301 8.91663544 33.6949301 8.91663544 33.6949301 0.14846044 35.0211301 0.14846044"/>
                    <path d="M42.8364634,5.86173544 C42.8364634,6.78611044 42.5742634,7.54346044 42.0498634,8.13761044 C41.5001301,8.74833544 40.7705301,9.05306044 39.8623301,9.05306044 C38.9845301,9.05306044 38.2865967,8.76108544 37.7672634,8.17458544 C37.2479301,7.58936044 36.9882634,6.85113544 36.9882634,5.96118544 C36.9882634,5.03043544 37.2555301,4.26671044 37.7925967,3.67383544 C38.3296634,3.08096044 39.0516634,2.78388544 39.9598634,2.78388544 C40.8376634,2.78388544 41.5406634,3.07586044 42.0751967,3.66108544 C42.5818634,4.22973544 42.8364634,4.96413544 42.8364634,5.86173544 Z M41.4583301,5.90508544 C41.4583301,5.35046044 41.3392634,4.87488544 41.1023967,4.47836044 C40.8249967,3.99896044 40.4272634,3.75926044 39.9129967,3.75926044 C39.3784634,3.75926044 38.9731301,3.99896044 38.6957301,4.47836044 C38.4575967,4.87488544 38.3397967,5.35811044 38.3397967,5.92931044 C38.3397967,6.48393544 38.4588634,6.95951044 38.6957301,7.35603544 C38.9832634,7.83543544 39.3835301,8.07513544 39.9003301,8.07513544 C40.4069967,8.07513544 40.8034634,7.83161044 41.0897301,7.34328544 C41.3367301,6.93911044 41.4583301,6.45971044 41.4583301,5.90508544 Z" id="Shape"/>
                    <path d="M49.2609967,8.91663544 L48.0690634,8.91663544 L47.9702634,8.22431044 L47.9335301,8.22431044 C47.5256634,8.77638544 46.9442634,9.05306044 46.1893301,9.05306044 C45.6256634,9.05306044 45.1696634,8.87073544 44.8263967,8.50863544 C44.5147967,8.17968544 44.3589967,7.77041044 44.3589967,7.28463544 C44.3589967,6.55023544 44.6629967,5.99051044 45.2747967,5.60291044 C45.8853301,5.21531044 46.7441301,5.02533544 47.8499301,5.03426044 L47.8499301,4.92206044 C47.8499301,4.13028544 47.4369967,3.73503544 46.6098634,3.73503544 C46.0208634,3.73503544 45.5015301,3.88421044 45.0531301,4.18001044 L44.7833301,3.30281044 C45.3381301,2.95728544 46.0233967,2.78388544 46.8315301,2.78388544 C48.3920634,2.78388544 49.1748634,3.61263544 49.1748634,5.27013544 L49.1748634,7.48353544 C49.1748634,8.08406044 49.2039967,8.56218544 49.2609967,8.91663544 Z M47.8828634,6.85113544 L47.8828634,5.92421044 C46.4185967,5.89871044 45.6864634,6.30288544 45.6864634,7.13546044 C45.6864634,7.44911044 45.7700634,7.68371044 45.9410634,7.84053544 C46.1120634,7.99736044 46.3299301,8.07513544 46.5895967,8.07513544 C46.8809301,8.07513544 47.1532634,7.98206044 47.4015301,7.79718544 C47.6510634,7.61103544 47.8043301,7.37516044 47.8613301,7.08573544 C47.8752634,7.02071044 47.8828634,6.94166044 47.8828634,6.85113544 Z" id="Shape"/>
                    <path d="M56.8039967,8.91663544 L55.6259967,8.91663544 L55.5639301,7.95146044 L55.5271967,7.95146044 C55.1509967,8.68586044 54.5100634,9.05306044 53.6094634,9.05306044 C52.8899967,9.05306044 52.2908634,8.76873544 51.8158634,8.20008544 C51.3408634,7.63143544 51.1039967,6.89321044 51.1039967,5.98668544 C51.1039967,5.01386044 51.3611301,4.22591044 51.8779301,3.62411044 C52.3782634,3.06311044 52.9913301,2.78261044 53.7209301,2.78261044 C54.5227301,2.78261044 55.0838634,3.05418544 55.4030634,3.59861044 L55.4283967,3.59861044 L55.4283967,0.14846044 L56.7571301,0.14846044 L56.7571301,7.29738544 C56.7571301,7.88261044 56.7723301,8.42193544 56.8039967,8.91663544 Z M55.4283967,6.38193544 L55.4283967,5.37978544 C55.4283967,5.20638544 55.4157301,5.06613544 55.3916634,4.95903544 C55.3169301,4.63773544 55.1560634,4.36743544 54.9115967,4.14941044 C54.6645967,3.93138544 54.3669301,3.82173544 54.0236634,3.82173544 C53.5283967,3.82173544 53.1407967,4.01936044 52.8557967,4.41588544 C52.5733301,4.81241044 52.4301967,5.31858544 52.4301967,5.93696044 C52.4301967,6.53111044 52.5657301,7.01306044 52.8380634,7.38408544 C53.1255967,7.77933544 53.5131967,7.97696044 53.9983301,7.97696044 C54.4340634,7.97696044 54.7823967,7.81248544 55.0471301,7.48226044 C55.3029967,7.17753544 55.4283967,6.81033544 55.4283967,6.38193544 Z" id="Shape"/>
                    <path d="M68.1571301,5.86173544 C68.1571301,6.78611044 67.8949301,7.54346044 67.3705301,8.13761044 C66.8207967,8.74833544 66.0937301,9.05306044 65.1829967,9.05306044 C64.3077301,9.05306044 63.6097967,8.76108544 63.0879301,8.17458544 C62.5685967,7.58936044 62.3089301,6.85113544 62.3089301,5.96118544 C62.3089301,5.03043544 62.5761967,4.26671044 63.1132634,3.67383544 C63.6503301,3.08096044 64.3723301,2.78388544 65.2830634,2.78388544 C66.1583301,2.78388544 66.8638634,3.07586044 67.3958634,3.66108544 C67.9025301,4.22973544 68.1571301,4.96413544 68.1571301,5.86173544 Z M66.7815301,5.90508544 C66.7815301,5.35046044 66.6624634,4.87488544 66.4255967,4.47836044 C66.1456634,3.99896044 65.7504634,3.75926044 65.2336634,3.75926044 C64.7016634,3.75926044 64.2963301,3.99896044 64.0163967,4.47836044 C63.7782634,4.87488544 63.6604634,5.35811044 63.6604634,5.92931044 C63.6604634,6.48393544 63.7795301,6.95951044 64.0163967,7.35603544 C64.3039301,7.83543544 64.7041967,8.07513544 65.2209967,8.07513544 C65.7276634,8.07513544 66.1266634,7.83161044 66.4129301,7.34328544 C66.6573967,6.93911044 66.7815301,6.45971044 66.7815301,5.90508544 Z" id="Shape"/>
                    <path d="M75.2947967,8.91663544 L73.9685967,8.91663544 L73.9685967,5.47413544 C73.9685967,4.41333544 73.5683301,3.88293544 72.7639967,3.88293544 C72.3700634,3.88293544 72.0521301,4.02828544 71.8063967,4.32026044 C71.5606634,4.61223544 71.4377967,4.95648544 71.4377967,5.35046044 L71.4377967,8.91536044 L70.1090634,8.91536044 L70.1090634,4.62371044 C70.1090634,4.09586044 70.0938634,3.52338544 70.0621967,2.90373544 L71.2275301,2.90373544 L71.2895967,3.84341044 L71.3263301,3.84341044 C71.4821301,3.55143544 71.7126634,3.31046044 72.0141301,3.11793544 C72.3751301,2.89353544 72.7766634,2.78006044 73.2187301,2.78006044 C73.7747967,2.78006044 74.2383967,2.96111044 74.6069967,3.32448544 C75.0667967,3.76946044 75.2947967,4.43373544 75.2947967,5.31603544 L75.2947967,8.91663544 L75.2947967,8.91663544 Z" id="Shape"/>
                    <path d="M84.2285967,3.90716044 L82.7668634,3.90716044 L82.7668634,6.82691044 C82.7668634,7.56896044 83.0265301,7.93998544 83.5407967,7.93998544 C83.7789301,7.93998544 83.9765301,7.91958544 84.1323301,7.87751044 L84.1665301,8.89113544 C83.9043301,8.99058544 83.5597967,9.04031044 83.1354634,9.04031044 C82.6110634,9.04031044 82.2031967,8.87966044 81.9080634,8.55836044 C81.6116634,8.23706044 81.4647301,7.69646044 81.4647301,6.93783544 L81.4647301,3.90716044 L80.5919967,3.90716044 L80.5919967,2.90628544 L81.4647301,2.90628544 L81.4647301,1.80468544 L82.7655967,1.40943544 L82.7655967,2.90501044 L84.2273301,2.90501044 L84.2273301,3.90716044 L84.2285967,3.90716044 Z" id="Shape"/>
                    <path d="M91.2560634,8.91663544 L89.9273301,8.91663544 L89.9273301,5.49963544 C89.9273301,4.42226044 89.5270634,3.88293544 88.7252634,3.88293544 C88.1096634,3.88293544 87.6891301,4.19531044 87.4585967,4.82006044 C87.4193301,4.95138544 87.3965301,5.11203544 87.3965301,5.30073544 L87.3965301,8.91536044 L86.0703301,8.91536044 L86.0703301,0.14846044 L87.3965301,0.14846044 L87.3965301,3.77073544 L87.4218634,3.77073544 C87.8398634,3.11156044 88.4389967,2.78261044 89.2154634,2.78261044 C89.7651967,2.78261044 90.2199301,2.96366044 90.5809301,3.32703544 C91.0305967,3.77966044 91.2560634,4.45286044 91.2560634,5.34281044 L91.2560634,8.91663544 L91.2560634,8.91663544 Z" id="Shape"/>
                    <path d="M98.5051967,5.62713544 C98.5051967,5.86683544 98.4874634,6.06828544 98.4557967,6.23276044 L94.4746634,6.23276044 C94.4923967,6.82691044 94.6823967,7.27953544 95.0509967,7.59318544 C95.3879301,7.87368544 95.8223967,8.01393544 96.3543967,8.01393544 C96.9433967,8.01393544 97.4804634,7.91958544 97.9643301,7.72961044 L98.1720634,8.65781044 C97.6058634,8.90516044 96.9395967,9.02883544 96.1681967,9.02883544 C95.2435301,9.02883544 94.5151967,8.75471044 93.9882634,8.20646044 C93.4587967,7.65821044 93.1965967,6.92253544 93.1965967,5.99943544 C93.1965967,5.09291044 93.4410634,4.33811044 93.9337967,3.73631044 C94.4480634,3.09371044 95.1434634,2.77241044 96.0212634,2.77241044 C96.8800634,2.77241044 97.5323967,3.09371044 97.9731967,3.73631044 C98.3291301,4.24631044 98.5051967,4.87743544 98.5051967,5.62713544 Z M97.2385301,5.28161044 C97.2486634,4.88508544 97.1612634,4.54338544 96.9813967,4.25523544 C96.7508634,3.88421044 96.3999967,3.69806044 95.9249967,3.69806044 C95.4917967,3.69806044 95.1383967,3.87911044 94.8685967,4.24248544 C94.6481967,4.53191044 94.5177301,4.87743544 94.4746634,5.28161044 L97.2385301,5.28161044 Z" id="Shape"/>
                </g>
            </g>
        </g>
    </g>
</svg>